<svg width="610" height="198" viewBox="0 0 610 198" fill="none" xmlns="http://www.w3.org/2000/svg">
<path d="M283.603 88.4329C281.39 85.7391 278.6 83.5264 275.425 82.0833C272.25 80.6402 268.787 79.9667 265.227 80.1592C261.572 80.1592 258.012 80.9288 254.645 82.3719C251.277 83.9112 248.295 86.0277 245.89 88.8177C240.695 94.6863 237.809 102.19 237.809 110.079C237.809 117.872 240.695 125.472 245.89 131.341C248.295 134.131 251.277 136.247 254.645 137.787C258.012 139.326 261.572 139.999 265.227 139.999C273.116 139.999 279.274 137.21 283.603 131.726V138.364H298.13V81.7946H283.603V88.4329ZM279.177 121.528C277.734 122.971 276.003 124.125 274.078 124.895C272.154 125.665 270.134 126.05 268.017 125.953C265.997 126.05 263.881 125.665 261.956 124.895C260.032 124.125 258.301 122.971 256.857 121.528C254.067 118.353 252.432 114.312 252.432 110.079C252.432 105.846 253.971 101.709 256.857 98.6308C258.301 97.1877 260.032 96.0332 261.956 95.2635C263.881 94.4939 265.901 94.1091 268.017 94.2053C270.134 94.1091 272.154 94.4939 274.078 95.2635C276.003 96.0332 277.734 97.1877 279.177 98.6308C282.064 101.806 283.603 105.846 283.603 110.079C283.603 114.312 282.064 118.353 279.177 121.528Z" fill="#1D1D1B"/>
<path d="M172.585 59.9238H157V139.102H202.602V124.19H172.489L172.585 59.9238Z" fill="#1D1D1B"/>
<path d="M322.567 90.3253V80.6085H308.04V137.178H322.567V110.144C322.567 104.756 324.298 100.812 327.762 98.5029C331.225 96.1939 335.458 95.2319 339.691 95.8091V79.454C336.036 79.454 332.476 80.3199 329.301 82.1478C326.126 83.9757 323.721 86.8619 322.567 90.3253ZM410.499 70.2182V58H358.836V72.912H390.777L357.971 124.767V137.274H411.077V122.362H377.597L410.499 70.2182ZM445.422 79.0692C441.478 78.973 437.533 79.6464 433.877 81.0895C430.222 82.5326 426.854 84.7454 424.064 87.6315C418.677 93.4039 415.695 101.1 415.695 108.989C415.695 116.878 418.773 124.575 424.161 130.347C429.837 136.023 437.245 138.813 446.577 138.813C457.352 138.813 465.529 134.773 471.109 126.691L459.372 119.861C457.929 121.785 456.005 123.228 453.792 124.286C451.579 125.248 449.174 125.729 446.769 125.537C438.111 125.537 432.819 121.977 430.895 114.858H473.322C473.707 112.838 473.899 110.913 473.899 108.893C474.092 101.004 471.206 93.3077 465.818 87.6315C463.22 84.8416 460.046 82.6288 456.486 81.0895C453.023 79.6464 449.271 78.973 445.422 79.0692ZM430.607 103.602C431.28 100.235 433.012 97.2522 435.705 95.1356C438.495 93.0191 441.959 91.9608 445.422 92.1533C448.597 92.1533 451.676 93.1153 454.273 94.9432C456.967 97.0598 458.795 100.138 459.372 103.506L430.607 103.602ZM498.528 90.3253V80.6085H484.001V137.178H498.528V110.144C498.528 104.756 500.26 100.812 503.723 98.5029C507.187 96.1939 511.42 95.2319 515.557 95.8091V79.454C511.901 79.454 508.341 80.3199 505.166 82.1478C502.088 83.9757 499.779 86.8619 498.528 90.3253ZM548.844 79.0692C542.013 79.1654 535.471 81.5705 530.18 85.996C524.985 90.4215 521.425 96.4825 520.175 103.217C518.924 109.951 519.982 116.878 523.253 122.939C526.524 129 531.719 133.618 538.069 136.216C544.419 138.813 551.442 139.102 557.888 137.082C564.43 135.061 570.01 130.828 573.762 125.152C577.514 119.476 579.245 112.549 578.572 105.815C577.898 98.9839 574.916 92.6343 570.009 87.824C567.22 85.034 563.949 82.725 560.293 81.2819C556.637 79.6464 552.692 78.973 548.844 79.0692ZM559.715 120.149C558.272 121.592 556.541 122.747 554.713 123.517C552.789 124.286 550.864 124.671 548.844 124.575C546.824 124.671 544.803 124.286 542.976 123.517C541.148 122.747 539.416 121.592 537.973 120.149C535.183 117.071 533.643 113.126 533.643 108.893C533.643 104.756 535.183 100.716 537.973 97.637C539.416 96.1939 541.051 95.0394 542.976 94.2698C544.803 93.5001 546.824 93.1153 548.844 93.2115C550.864 93.1153 552.885 93.5001 554.713 94.2698C556.637 95.0394 558.272 96.1939 559.715 97.637C562.505 100.716 564.141 104.66 564.141 108.893C564.141 113.126 562.505 117.071 559.715 120.149ZM609.069 119.764H591.367V137.178H609.069V119.764Z" fill="#1D1D1B"/>
<path d="M220.334 76.2127C218.032 76.2127 216.083 75.3235 214.312 73.7229C212.541 71.9445 211.833 69.9882 211.833 67.6762C211.833 65.3643 212.718 63.2302 214.312 61.6296C216.083 59.8511 218.032 58.9619 220.334 58.9619C222.637 58.9619 224.762 59.8511 226.533 61.6296C228.304 63.408 229.013 65.3643 229.013 67.6762C229.013 69.9882 228.127 71.9445 226.533 73.7229C224.762 75.5013 222.814 76.2127 220.334 76.2127ZM213.427 138.697V82.7929H227.419V138.697H213.427Z" fill="#1D1D1B"/>
<path d="M100.1 109.5C104.4 105.2 107.8 100.1 110.1 94.5C112.4 88.9 113.6 82.9 113.6 76.8V57.8C113.6 42.5 107.7 27.9 97 17.1C91.8 11.8 85.5 7.5 78.6 4.6C71.7 1.5 64.3 0 56.8 0C49.3 0 41.9 1.6 35 4.5C28.1 7.4 21.9 11.6 16.6 17C11.3 22.3 7.2 28.7 4.3 35.7C1.5 42.7 0 50.1 0.1 57.7V76.7H33.7C31.9 77.2 30.2 77.8 28.5 78.5C22.9 80.8 17.8 84.2 13.5 88.5C9.2 92.8 5.8 97.9 3.5 103.5C1.2 109.1 0 115.1 0 121.2V140.2C0 155.5 5.9 170.1 16.6 180.9C21.8 186.2 28.1 190.5 35 193.4C41.9 196.5 49.3 198 56.8 198C64.3 198 71.7 196.4 78.6 193.5C85.5 190.6 91.7 186.4 97 181C102.3 175.7 106.4 169.3 109.3 162.3C112.1 155.3 113.6 147.9 113.5 140.3V121.3H79.9C81.7 120.8 83.4 120.2 85.1 119.5C90.7 117.2 95.8 113.8 100.1 109.5ZM88.1 152C88.1 161.9 80 170 70.1 170C65 170 60.4 167.9 57.1 164.4C53.8 167.8 49.2 170 44.1 170C34.2 170 26.1 161.9 26.1 152C26.1 142.1 34.2 134 44.1 134C44.2 134 44.3 134 44.4 134C44.2 133.2 44.1 132.3 44.1 131.5V32.5C44.1 25.6 49.7 20 56.6 20C63.5 20 69.1 25.6 69.1 32.5V131.5C69.1 132.4 69 133.2 68.8 134.1C69.2 134.1 69.6 134 70.1 134C80 134 88.1 142.1 88.1 152Z" fill="#1D1D1B"/>
</svg>
