<svg width="34" height="60" viewBox="0 0 34 60" fill="none" xmlns="http://www.w3.org/2000/svg">
<path d="M29.9091 33.1818C31.2122 31.8788 32.2425 30.3333 32.9394 28.6364C33.6364 26.9394 34 25.1212 34 23.2727V17.5152C34 12.8788 32.2122 8.45455 28.9697 5.18182C27.394 3.57576 25.4849 2.27273 23.394 1.39394C21.3031 0.454545 19.0607 0 16.7879 0C14.5152 0 12.2728 0.484848 10.1819 1.36364C8.09096 2.24242 6.21217 3.51515 4.60611 5.15152C3.00005 6.75758 1.75762 8.69697 0.878836 10.8182C0.0303512 12.9394 -0.424194 15.1818 -0.393891 17.4848V23.2424H9.78793C9.24247 23.3939 8.72732 23.5758 8.21217 23.7879C6.5152 24.4848 4.96975 25.5152 3.66671 26.8182C2.36368 28.1212 1.33338 29.6667 0.636412 31.3636C-0.060558 33.0606 -0.424194 34.8788 -0.424194 36.7273V42.4848C-0.424194 47.1212 1.36368 51.5455 4.60611 54.8182C6.18187 56.4242 8.09096 57.7273 10.1819 58.6061C12.2728 59.5455 14.5152 60 16.7879 60C19.0607 60 21.3031 59.5152 23.394 58.6364C25.4849 57.7576 27.3637 56.4849 28.9697 54.8485C30.5758 53.2424 31.8182 51.303 32.697 49.1818C33.5455 47.0606 34 44.8182 33.9697 42.5152V36.7576H23.7879C24.3334 36.6061 24.8485 36.4242 25.3637 36.2121C27.0607 35.5152 28.6061 34.4848 29.9091 33.1818ZM26.2728 46.0606C26.2728 49.0606 23.8182 51.5152 20.8182 51.5152C19.2728 51.5152 17.8788 50.8788 16.8788 49.8182C15.8788 50.8485 14.4849 51.5152 12.9394 51.5152C9.93944 51.5152 7.4849 49.0606 7.4849 46.0606C7.4849 43.0606 9.93944 40.6061 12.9394 40.6061C12.9697 40.6061 13 40.6061 13.0304 40.6061C12.9697 40.3636 12.9394 40.0909 12.9394 39.8485V9.84848C12.9394 7.75758 14.6364 6.06061 16.7273 6.06061C18.8182 6.06061 20.5152 7.75758 20.5152 9.84848V39.8485C20.5152 40.1212 20.4849 40.3636 20.4243 40.6364C20.5455 40.6364 20.6667 40.6061 20.8182 40.6061C23.8182 40.6061 26.2728 43.0606 26.2728 46.0606Z" fill="#1D1D1B"/>
</svg>
