<svg width="610" height="198" viewBox="0 0 92 198" fill="none" xmlns="http://www.w3.org/2000/svg">
<path d="M100.1 109.5C104.4 105.2 107.8 100.1 110.1 94.5C112.4 88.9 113.6 82.9 113.6 76.8V57.8C113.6 42.5 107.7 27.9 97 17.1C91.8 11.8 85.5 7.5 78.6 4.6C71.7 1.5 64.3 0 56.8 0C49.3 0 41.9 1.6 35 4.5C28.1 7.4 21.9 11.6 16.6 17C11.3 22.3 7.2 28.7 4.3 35.7C1.5 42.7 0 50.1 0.1 57.7V76.7H33.7C31.9 77.2 30.2 77.8 28.5 78.5C22.9 80.8 17.8 84.2 13.5 88.5C9.2 92.8 5.8 97.9 3.5 103.5C1.2 109.1 0 115.1 0 121.2V140.2C0 155.5 5.9 170.1 16.6 180.9C21.8 186.2 28.1 190.5 35 193.4C41.9 196.5 49.3 198 56.8 198C64.3 198 71.7 196.4 78.6 193.5C85.5 190.6 91.7 186.4 97 181C102.3 175.7 106.4 169.3 109.3 162.3C112.1 155.3 113.6 147.9 113.5 140.3V121.3H79.9C81.7 120.8 83.4 120.2 85.1 119.5C90.7 117.2 95.8 113.8 100.1 109.5ZM88.1 152C88.1 161.9 80 170 70.1 170C65 170 60.4 167.9 57.1 164.4C53.8 167.8 49.2 170 44.1 170C34.2 170 26.1 161.9 26.1 152C26.1 142.1 34.2 134 44.1 134C44.2 134 44.3 134 44.4 134C44.2 133.2 44.1 132.3 44.1 131.5V32.5C44.1 25.6 49.7 20 56.6 20C63.5 20 69.1 25.6 69.1 32.5V131.5C69.1 132.4 69 133.2 68.8 134.1C69.2 134.1 69.6 134 70.1 134C80 134 88.1 142.1 88.1 152Z" fill="#1D1D1B"/>
</svg>
