<svg width="53" height="92" viewBox="0 0 53 92" fill="none" xmlns="http://www.w3.org/2000/svg">
<path d="M45.9393 50.7727C47.8698 48.8182 49.3962 46.5 50.4287 43.9546C51.4613 41.4091 52 38.6818 52 35.909V27.2728C52 20.3182 49.3513 13.6818 44.5475 8.77273C42.2131 6.36364 39.3847 4.40909 36.287 3.09091C33.1893 1.68182 29.8672 1 26.5 1C23.133 1 19.8108 1.72727 16.7131 3.04546C13.6153 4.36363 10.8319 6.27272 8.45248 8.72728C6.07307 11.1364 4.23239 14.0455 2.93046 17.2273C1.67342 20.4091 1 23.7727 1.04489 27.2272V35.8636H16.1294C15.3213 36.0908 14.5581 36.3637 13.7949 36.6819C11.2808 37.7272 8.99121 39.2728 7.06074 41.2273C5.13028 43.1818 3.60387 45.5 2.5713 48.0454C1.53873 50.5909 1 53.3182 1 56.0909V64.7272C1 71.6818 3.64876 78.3182 8.45248 83.2273C10.787 85.6363 13.6153 87.5909 16.7131 88.9091C19.8108 90.3182 23.133 91 26.5 91C29.8672 91 33.1893 90.2728 36.287 88.9546C39.3847 87.6364 42.1682 85.7273 44.5475 83.2727C46.927 80.8636 48.7676 77.9545 50.0696 74.7727C51.3266 71.5909 52 68.2273 51.9551 64.7728V56.1364H36.8706C37.6788 55.9091 38.4419 55.6363 39.2052 55.3182C41.7193 54.2728 44.0088 52.7272 45.9393 50.7727ZM40.552 70.0909C40.552 74.5909 36.9155 78.2728 32.4709 78.2728C30.1814 78.2728 28.1162 77.3182 26.6347 75.7273C25.1531 77.2727 23.0881 78.2728 20.7984 78.2728C16.3539 78.2728 12.7175 74.5909 12.7175 70.0909C12.7175 65.5909 16.3539 61.9091 20.7984 61.9091C20.8433 61.9091 20.8882 61.9091 20.9332 61.9091C20.8433 61.5454 20.7984 61.1363 20.7984 60.7727V15.7727C20.7984 12.6364 23.3125 10.0909 26.4102 10.0909C29.5079 10.0909 32.022 12.6364 32.022 15.7727V60.7727C32.022 61.1818 31.9772 61.5454 31.8874 61.9546C32.0669 61.9546 32.2465 61.9091 32.4709 61.9091C36.9155 61.9091 40.552 65.5909 40.552 70.0909Z" fill="#1D1D1B" stroke="#5E5E5E"/>
</svg>
