<svg width="234" height="78" viewBox="0 0 234 78" fill="none" xmlns="http://www.w3.org/2000/svg">
<mask id="mask0_64_64" style="mask-type:luminance" maskUnits="userSpaceOnUse" x="0" y="0" width="234" height="78">
<path d="M233 1H1V76.6522H233V1Z" fill="white" stroke="white"/>
</mask>
<g mask="url(#mask0_64_64)">
<path d="M108.824 34.7888C107.978 33.7595 106.912 32.914 105.699 32.3627C104.486 31.8113 103.163 31.5539 101.803 31.6276C100.406 31.6276 99.046 31.9216 97.7595 32.473C96.4725 33.0611 95.3332 33.8698 94.4143 34.9358C92.4294 37.178 91.3267 40.0451 91.3267 43.0594C91.3267 46.0369 92.4294 48.9407 94.4143 51.1832C95.3332 52.2492 96.4725 53.0577 97.7595 53.646C99.046 54.2341 100.406 54.4912 101.803 54.4912C104.817 54.4912 107.17 53.4256 108.824 51.3303V53.8665H114.374V32.2523H108.824V34.7888ZM107.133 47.4338C106.581 47.9851 105.92 48.426 105.184 48.7203C104.449 49.0145 103.678 49.1616 102.869 49.1245C102.097 49.1616 101.288 49.0145 100.553 48.7203C99.8177 48.426 99.1563 47.9851 98.6047 47.4338C97.5386 46.2206 96.9139 44.6767 96.9139 43.0594C96.9139 41.4421 97.5019 39.8613 98.6047 38.6852C99.1563 38.1338 99.8177 37.6927 100.553 37.3986C101.288 37.1045 102.06 36.9575 102.869 36.9943C103.678 36.9575 104.449 37.1045 105.184 37.3986C105.92 37.6927 106.581 38.1338 107.133 38.6852C108.236 39.8984 108.824 41.4421 108.824 43.0594C108.824 44.6767 108.236 46.2206 107.133 47.4338Z" fill="#1D1D1B" stroke="#5E5E5E"/>
<path d="M123.713 35.5115V31.7989H118.162V53.4131H123.713V43.0839C123.713 41.0253 124.374 39.5183 125.697 38.6361C127.021 37.7538 128.638 37.3863 130.255 37.6068V31.3578C128.859 31.3578 127.498 31.6887 126.286 32.3871C125.072 33.0855 124.154 34.1882 123.713 35.5115ZM157.309 27.829V23.1606H137.57V28.8583H149.774L137.24 48.6711V53.4498H157.531V47.7521H144.738L157.309 27.829ZM170.653 31.2108C169.146 31.174 167.64 31.4313 166.242 31.9827C164.845 32.5341 163.559 33.3796 162.493 34.4822C160.435 36.6878 159.295 39.6284 159.295 42.6426C159.295 45.6568 160.471 48.5977 162.529 50.8031C164.698 52.9718 167.529 54.0378 171.094 54.0378C175.211 54.0378 178.335 52.4941 180.468 49.4062L175.983 46.7965C175.432 47.5317 174.697 48.083 173.852 48.4874C173.006 48.8549 172.087 49.0386 171.167 48.9652C167.86 48.9652 165.838 47.6051 165.103 44.885H181.314C181.46 44.1133 181.534 43.3777 181.534 42.6059C181.607 39.5917 180.505 36.6511 178.446 34.4822C177.454 33.4163 176.241 32.5709 174.881 31.9827C173.558 31.4313 172.124 31.174 170.653 31.2108ZM164.993 40.5843C165.25 39.2979 165.912 38.1582 166.941 37.3495C168.006 36.5407 169.33 36.1364 170.653 36.21C171.866 36.21 173.042 36.5776 174.035 37.276C175.065 38.0847 175.763 39.2608 175.983 40.5477L164.993 40.5843ZM190.944 35.5115V31.7989H185.394V53.4131H190.944V43.0839C190.944 41.0253 191.606 39.5183 192.929 38.6361C194.253 37.7538 195.87 37.3863 197.45 37.6068V31.3578C196.053 31.3578 194.694 31.6887 193.48 32.3871C192.305 33.0855 191.422 34.1882 190.944 35.5115ZM210.169 31.2108C207.559 31.2475 205.06 32.1665 203.037 33.8574C201.053 35.5483 199.692 37.864 199.215 40.4372C198.738 43.0101 199.141 45.6568 200.391 47.9727C201.641 50.2884 203.626 52.0528 206.052 53.0455C208.478 54.0378 211.161 54.1482 213.625 53.3764C216.124 52.6042 218.256 50.9869 219.689 48.8182C221.123 46.6495 221.785 44.0028 221.528 41.4299C221.269 38.8198 220.131 36.3937 218.256 34.5559C217.19 33.4898 215.94 32.6076 214.544 32.0562C213.147 31.4313 211.639 31.174 210.169 31.2108ZM214.322 46.9066C213.771 47.458 213.11 47.8993 212.412 48.1934C211.677 48.4874 210.94 48.6344 210.169 48.5977C209.397 48.6344 208.625 48.4874 207.927 48.1934C207.228 47.8993 206.566 47.458 206.015 46.9066C204.949 45.7306 204.361 44.2232 204.361 42.6059C204.361 41.0253 204.949 39.4816 206.015 38.3052C206.566 37.7538 207.192 37.3126 207.927 37.0186C208.625 36.7246 209.397 36.5776 210.169 36.6142C210.94 36.5776 211.713 36.7246 212.412 37.0186C213.147 37.3126 213.771 37.7538 214.322 38.3052C215.389 39.4816 216.014 40.9886 216.014 42.6059C216.014 44.2232 215.389 45.7306 214.322 46.9066ZM233.18 46.7595H226.416V53.4131H233.18V46.7595Z" fill="#1D1D1B" stroke="#5E5E5E"/>
<path d="M38.7117 42.8379C40.3547 41.195 41.6538 39.2463 42.5325 37.1068C43.4113 34.9671 43.8698 32.6746 43.8698 30.3438V23.0844C43.8698 17.2385 41.6156 11.6601 37.5272 7.5336C35.5404 5.50857 33.1333 3.86562 30.497 2.75758C27.8606 1.57312 25.0332 1 22.1675 1C19.302 1 16.4746 1.61133 13.8382 2.71937C11.2018 3.8274 8.83292 5.43215 6.80789 7.4954C4.78286 9.52043 3.21632 11.9657 2.10828 14.6403C1.03845 17.3149 0.465332 20.1423 0.50354 23.0461V30.3056H13.3415C12.6537 30.4967 12.0042 30.726 11.3547 30.9934C9.215 31.8721 7.26639 33.1713 5.62343 34.8143C3.98048 36.4572 2.6814 38.4058 1.80262 40.5454C0.92383 42.6851 0.465332 44.9776 0.465332 47.3083V54.5678C0.465332 60.4137 2.71961 65.9922 6.80789 70.1186C8.79472 72.1436 11.2018 73.7866 13.8382 74.8947C16.4746 76.0791 19.302 76.6522 22.1675 76.6522C25.0332 76.6522 27.8606 76.0409 30.497 74.9329C33.1333 73.8248 35.5022 72.2201 37.5272 70.1568C39.5523 68.1317 41.1188 65.6864 42.2268 63.0118C43.2967 60.3373 43.8698 57.5099 43.8315 54.6061V47.3465H30.9936C31.6814 47.1555 32.3309 46.9262 32.9805 46.6587C35.1202 45.78 37.0687 44.4808 38.7117 42.8379ZM34.1268 59.0764C34.1268 62.859 31.0318 65.954 27.2492 65.954C25.3007 65.954 23.543 65.1515 22.2822 63.8143C21.0213 65.1133 19.2638 65.954 17.3151 65.954C13.5325 65.954 10.4377 62.859 10.4377 59.0764C10.4377 55.2938 13.5325 52.199 17.3151 52.199C17.3533 52.199 17.3915 52.199 17.4298 52.199C17.3533 51.8932 17.3151 51.5494 17.3151 51.2438V13.4177C17.3151 10.7813 19.4548 8.64164 22.0911 8.64164C24.7275 8.64164 26.8672 10.7813 26.8672 13.4177V51.2438C26.8672 51.5876 26.829 51.8932 26.7526 52.2372C26.9054 52.2372 27.0582 52.199 27.2492 52.199C31.0318 52.199 34.1268 55.2938 34.1268 59.0764Z" fill="#1D1D1B" stroke="#5E5E5E"/>
<path d="M66.4069 23.8958H60.4521V54.1483H77.8759V48.4507H66.3702L66.4069 23.8958Z" fill="#1D1D1B" stroke="#5E5E5E"/>
<path d="M84.6503 30.1193C83.7709 30.1193 83.0262 29.7795 82.3495 29.1679C81.6728 28.4885 81.4023 27.741 81.4023 26.8577C81.4023 25.9743 81.7405 25.1589 82.3495 24.5474C83.0262 23.8678 83.7709 23.5281 84.6503 23.5281C85.5303 23.5281 86.3423 23.8678 87.0189 24.5474C87.6956 25.2268 87.9664 25.9743 87.9664 26.8577C87.9664 27.741 87.628 28.4885 87.0189 29.1679C86.3423 29.8474 85.598 30.1193 84.6503 30.1193ZM82.0113 53.9933V32.6334H87.3574V53.9933H82.0113Z" fill="#1D1D1B" stroke="#5E5E5E"/>
</g>
</svg>
